<svg width="1484" height="355" viewBox="0 0 1484 355" fill="none" xmlns="http://www.w3.org/2000/svg">
<rect width="1484" height="355" rx="100" fill="#1E1E1E"/>
<path d="M105.636 143V130.909H177.682V143H148.636V224H134.636V143H105.636ZM212.477 225.409C205.598 225.409 199.674 223.939 194.705 221C189.765 218.03 185.947 213.864 183.25 208.5C180.583 203.106 179.25 196.788 179.25 189.545C179.25 182.394 180.583 176.091 183.25 170.636C185.947 165.182 189.705 160.924 194.523 157.864C199.371 154.803 205.038 153.273 211.523 153.273C215.462 153.273 219.28 153.924 222.977 155.227C226.674 156.53 229.992 158.576 232.932 161.364C235.871 164.152 238.189 167.773 239.886 172.227C241.583 176.652 242.432 182.03 242.432 188.364V193.182H186.932V183H229.114C229.114 179.424 228.386 176.258 226.932 173.5C225.477 170.712 223.432 168.515 220.795 166.909C218.189 165.303 215.129 164.5 211.614 164.5C207.795 164.5 204.462 165.439 201.614 167.318C198.795 169.167 196.614 171.591 195.068 174.591C193.553 177.561 192.795 180.788 192.795 184.273V192.227C192.795 196.894 193.614 200.864 195.25 204.136C196.917 207.409 199.235 209.909 202.205 211.636C205.174 213.333 208.644 214.182 212.614 214.182C215.189 214.182 217.538 213.818 219.659 213.091C221.78 212.333 223.614 211.212 225.159 209.727C226.705 208.242 227.886 206.409 228.705 204.227L241.568 206.545C240.538 210.333 238.689 213.652 236.023 216.5C233.386 219.318 230.068 221.515 226.068 223.091C222.098 224.636 217.568 225.409 212.477 225.409ZM257.511 224V154.182H270.648V165.273H271.375C272.648 161.515 274.89 158.561 278.102 156.409C281.345 154.227 285.011 153.136 289.102 153.136C289.951 153.136 290.951 153.167 292.102 153.227C293.284 153.288 294.208 153.364 294.875 153.455V166.455C294.33 166.303 293.36 166.136 291.966 165.955C290.572 165.742 289.178 165.636 287.784 165.636C284.572 165.636 281.708 166.318 279.193 167.682C276.708 169.015 274.739 170.879 273.284 173.273C271.83 175.636 271.102 178.333 271.102 181.364V224H257.511Z" fill="white"/>
<rect x="398" y="100" width="15" height="155" rx="7.5" fill="white" fill-opacity="0.75"/>
<path d="M598.364 130.909V224H585.455L538.136 155.727H537.273V224H523.227V130.909H536.227L583.591 199.273H584.455V130.909H598.364ZM638.08 225.545C633.655 225.545 629.655 224.727 626.08 223.091C622.504 221.424 619.67 219.015 617.58 215.864C615.519 212.712 614.489 208.848 614.489 204.273C614.489 200.333 615.246 197.091 616.761 194.545C618.277 192 620.322 189.985 622.898 188.5C625.473 187.015 628.352 185.894 631.534 185.136C634.716 184.379 637.958 183.803 641.261 183.409C645.443 182.924 648.837 182.53 651.443 182.227C654.049 181.894 655.943 181.364 657.125 180.636C658.307 179.909 658.898 178.727 658.898 177.091V176.773C658.898 172.803 657.777 169.727 655.534 167.545C653.322 165.364 650.019 164.273 645.625 164.273C641.049 164.273 637.443 165.288 634.807 167.318C632.201 169.318 630.398 171.545 629.398 174L616.625 171.091C618.14 166.848 620.352 163.424 623.261 160.818C626.201 158.182 629.58 156.273 633.398 155.091C637.216 153.879 641.231 153.273 645.443 153.273C648.231 153.273 651.186 153.606 654.307 154.273C657.458 154.909 660.398 156.091 663.125 157.818C665.883 159.545 668.14 162.015 669.898 165.227C671.655 168.409 672.534 172.545 672.534 177.636V224H659.261V214.455H658.716C657.837 216.212 656.519 217.939 654.761 219.636C653.004 221.333 650.746 222.742 647.989 223.864C645.231 224.985 641.928 225.545 638.08 225.545ZM641.034 214.636C644.792 214.636 648.004 213.894 650.67 212.409C653.367 210.924 655.413 208.985 656.807 206.591C658.231 204.167 658.943 201.576 658.943 198.818V189.818C658.458 190.303 657.519 190.758 656.125 191.182C654.761 191.576 653.201 191.924 651.443 192.227C649.686 192.5 647.973 192.758 646.307 193C644.64 193.212 643.246 193.394 642.125 193.545C639.489 193.879 637.08 194.439 634.898 195.227C632.746 196.015 631.019 197.152 629.716 198.636C628.443 200.091 627.807 202.03 627.807 204.455C627.807 207.818 629.049 210.364 631.534 212.091C634.019 213.788 637.186 214.636 641.034 214.636ZM690.636 224V154.182H703.773V165.273H704.5C705.773 161.515 708.015 158.561 711.227 156.409C714.47 154.227 718.136 153.136 722.227 153.136C723.076 153.136 724.076 153.167 725.227 153.227C726.409 153.288 727.333 153.364 728 153.455V166.455C727.455 166.303 726.485 166.136 725.091 165.955C723.697 165.742 722.303 165.636 720.909 165.636C717.697 165.636 714.833 166.318 712.318 167.682C709.833 169.015 707.864 170.879 706.409 173.273C704.955 175.636 704.227 178.333 704.227 181.364V224H690.636ZM750.477 250.182C748.447 250.182 746.598 250.015 744.932 249.682C743.265 249.379 742.023 249.045 741.205 248.682L744.477 237.545C746.962 238.212 749.174 238.5 751.114 238.409C753.053 238.318 754.765 237.591 756.25 236.227C757.765 234.864 759.098 232.636 760.25 229.545L761.932 224.909L736.386 154.182H750.932L768.614 208.364H769.341L787.023 154.182H801.614L772.841 233.318C771.508 236.955 769.811 240.03 767.75 242.545C765.689 245.091 763.235 247 760.386 248.273C757.538 249.545 754.235 250.182 750.477 250.182Z" fill="white"/>
<rect x="906" y="100" width="15" height="155" rx="7.5" fill="white" fill-opacity="0.75"/>
<path d="M1082 155.364C1081.52 151.061 1079.52 147.727 1076 145.364C1072.48 142.97 1068.06 141.773 1062.73 141.773C1058.91 141.773 1055.61 142.379 1052.82 143.591C1050.03 144.773 1047.86 146.409 1046.32 148.5C1044.8 150.561 1044.05 152.909 1044.05 155.545C1044.05 157.758 1044.56 159.667 1045.59 161.273C1046.65 162.879 1048.03 164.227 1049.73 165.318C1051.45 166.379 1053.3 167.273 1055.27 168C1057.24 168.697 1059.14 169.273 1060.95 169.727L1070.05 172.091C1073.02 172.818 1076.06 173.803 1079.18 175.045C1082.3 176.288 1085.2 177.924 1087.86 179.955C1090.53 181.985 1092.68 184.5 1094.32 187.5C1095.98 190.5 1096.82 194.091 1096.82 198.273C1096.82 203.545 1095.45 208.227 1092.73 212.318C1090.03 216.409 1086.11 219.636 1080.95 222C1075.83 224.364 1069.64 225.545 1062.36 225.545C1055.39 225.545 1049.36 224.439 1044.27 222.227C1039.18 220.015 1035.2 216.879 1032.32 212.818C1029.44 208.727 1027.85 203.879 1027.55 198.273H1041.64C1041.91 201.636 1043 204.439 1044.91 206.682C1046.85 208.894 1049.32 210.545 1052.32 211.636C1055.35 212.697 1058.67 213.227 1062.27 213.227C1066.24 213.227 1069.77 212.606 1072.86 211.364C1075.98 210.091 1078.44 208.333 1080.23 206.091C1082.02 203.818 1082.91 201.167 1082.91 198.136C1082.91 195.379 1082.12 193.121 1080.55 191.364C1079 189.606 1076.89 188.152 1074.23 187C1071.59 185.848 1068.61 184.833 1065.27 183.955L1054.27 180.955C1046.82 178.924 1040.91 175.939 1036.55 172C1032.21 168.061 1030.05 162.848 1030.05 156.364C1030.05 151 1031.5 146.318 1034.41 142.318C1037.32 138.318 1041.26 135.212 1046.23 133C1051.2 130.758 1056.8 129.636 1063.05 129.636C1069.35 129.636 1074.91 130.742 1079.73 132.955C1084.58 135.167 1088.39 138.212 1091.18 142.091C1093.97 145.939 1095.42 150.364 1095.55 155.364H1082ZM1141.92 225.409C1135.16 225.409 1129.34 223.879 1124.47 220.818C1119.62 217.727 1115.89 213.47 1113.28 208.045C1110.68 202.621 1109.38 196.409 1109.38 189.409C1109.38 182.318 1110.71 176.061 1113.38 170.636C1116.04 165.182 1119.8 160.924 1124.65 157.864C1129.5 154.803 1135.21 153.273 1141.78 153.273C1147.09 153.273 1151.81 154.258 1155.97 156.227C1160.12 158.167 1163.47 160.894 1166.01 164.409C1168.59 167.924 1170.12 172.03 1170.6 176.727H1157.38C1156.65 173.455 1154.98 170.636 1152.38 168.273C1149.8 165.909 1146.34 164.727 1142.01 164.727C1138.22 164.727 1134.91 165.727 1132.06 167.727C1129.24 169.697 1127.04 172.515 1125.47 176.182C1123.89 179.818 1123.1 184.121 1123.1 189.091C1123.1 194.182 1123.88 198.576 1125.42 202.273C1126.97 205.97 1129.15 208.833 1131.97 210.864C1134.81 212.894 1138.16 213.909 1142.01 213.909C1144.59 213.909 1146.92 213.439 1149.01 212.5C1151.13 211.53 1152.91 210.152 1154.33 208.364C1155.78 206.576 1156.8 204.424 1157.38 201.909H1170.6C1170.12 206.424 1168.65 210.455 1166.19 214C1163.74 217.545 1160.45 220.333 1156.33 222.364C1152.24 224.394 1147.44 225.409 1141.92 225.409ZM1185.14 224V154.182H1198.27V165.273H1199C1200.27 161.515 1202.52 158.561 1205.73 156.409C1208.97 154.227 1212.64 153.136 1216.73 153.136C1217.58 153.136 1218.58 153.167 1219.73 153.227C1220.91 153.288 1221.83 153.364 1222.5 153.455V166.455C1221.95 166.303 1220.98 166.136 1219.59 165.955C1218.2 165.742 1216.8 165.636 1215.41 165.636C1212.2 165.636 1209.33 166.318 1206.82 167.682C1204.33 169.015 1202.36 170.879 1200.91 173.273C1199.45 175.636 1198.73 178.333 1198.73 181.364V224H1185.14ZM1234.26 224V154.182H1247.85V224H1234.26ZM1241.12 143.409C1238.76 143.409 1236.73 142.621 1235.03 141.045C1233.37 139.439 1232.53 137.53 1232.53 135.318C1232.53 133.076 1233.37 131.167 1235.03 129.591C1236.73 127.985 1238.76 127.182 1241.12 127.182C1243.49 127.182 1245.5 127.985 1247.17 129.591C1248.87 131.167 1249.72 133.076 1249.72 135.318C1249.72 137.53 1248.87 139.439 1247.17 141.045C1245.5 142.621 1243.49 143.409 1241.12 143.409ZM1266.14 250.182V154.182H1279.41V165.5H1280.55C1281.33 164.045 1282.47 162.364 1283.95 160.455C1285.44 158.545 1287.5 156.879 1290.14 155.455C1292.77 154 1296.26 153.273 1300.59 153.273C1306.23 153.273 1311.26 154.697 1315.68 157.545C1320.11 160.394 1323.58 164.5 1326.09 169.864C1328.64 175.227 1329.91 181.682 1329.91 189.227C1329.91 196.773 1328.65 203.242 1326.14 208.636C1323.62 214 1320.17 218.136 1315.77 221.045C1311.38 223.924 1306.36 225.364 1300.73 225.364C1296.48 225.364 1293.02 224.652 1290.32 223.227C1287.65 221.803 1285.56 220.136 1284.05 218.227C1282.53 216.318 1281.36 214.621 1280.55 213.136H1279.73V250.182H1266.14ZM1279.45 189.091C1279.45 194 1280.17 198.303 1281.59 202C1283.02 205.697 1285.08 208.591 1287.77 210.682C1290.47 212.742 1293.77 213.773 1297.68 213.773C1301.74 213.773 1305.14 212.697 1307.86 210.545C1310.59 208.364 1312.65 205.409 1314.05 201.682C1315.47 197.955 1316.18 193.758 1316.18 189.091C1316.18 184.485 1315.48 180.348 1314.09 176.682C1312.73 173.015 1310.67 170.121 1307.91 168C1305.18 165.879 1301.77 164.818 1297.68 164.818C1293.74 164.818 1290.41 165.833 1287.68 167.864C1284.98 169.894 1282.94 172.727 1281.55 176.364C1280.15 180 1279.45 184.242 1279.45 189.091ZM1377.73 154.182V165.091H1339.59V154.182H1377.73ZM1349.82 137.455H1363.41V203.5C1363.41 206.136 1363.8 208.121 1364.59 209.455C1365.38 210.758 1366.39 211.652 1367.64 212.136C1368.91 212.591 1370.29 212.818 1371.77 212.818C1372.86 212.818 1373.82 212.742 1374.64 212.591C1375.45 212.439 1376.09 212.318 1376.55 212.227L1379 223.455C1378.21 223.758 1377.09 224.061 1375.64 224.364C1374.18 224.697 1372.36 224.879 1370.18 224.909C1366.61 224.97 1363.27 224.333 1360.18 223C1357.09 221.667 1354.59 219.606 1352.68 216.818C1350.77 214.03 1349.82 210.53 1349.82 206.318V137.455Z" fill="white"/>
</svg>
